# xmcd CD database file
#
# Track frame offsets:
#	150
#	19365
#	40242
#	57676
#	78210
#	94678
#	115470
#	130416
#	148783
#	165747
#	184451
#	199975
#	220401
#	243901
#	264490
#	281082
#
# Disc length: 4088 seconds
#
# Revision: 2
# Processed by: cddbd v1.5.2PL0 Copyright (c) Steve Scherf et al.
# Submitted via: CDex 1.70beta2
#
DISCID=fd0ff610
DTITLE=Laura Pausini - Yo Canto
DYEAR=2006
DGENRE=Pop
TTITLE0=Yo Canto
TTITLE1=Dos
TTITLE2=Escríbeme
TTITLE3=Mi Libre Canción (With Juanes)
TTITLE4=Estrella Gemela
TTITLE5=Destino Paraíso
TTITLE6=Como El Sol Inesperado
TTITLE7=Cinco Días
TTITLE8=Y Mi Banda Toca El Rock
TTITLE9=Dispárame Dispara
TTITLE10=Corazón Frágil
TTITLE11=No Me Lo Puedo Explicar (With Tiziano Ferro)
TTITLE12=En Los Jardines Donde Nadie Va
TTITLE13=En Un Cuarto Casi Rosa
TTITLE14=Cuando
TTITLE15=Por El Camino
EXTD=YEAR: 2006
EXTT0=
EXTT1=
EXTT2=
EXTT3=
EXTT4=
EXTT5=
EXTT6=
EXTT7=
EXTT8=
EXTT9=
EXTT10=
EXTT11=
EXTT12=
EXTT13=
EXTT14=
EXTT15=
PLAYORDER=
